<?xml version="1.0" encoding="UTF-8" standalone="no"?>
<!-- Created with Inkscape (http://www.inkscape.org/) -->

<svg
   xmlns:dc="http://purl.org/dc/elements/1.1/"
   xmlns:cc="http://creativecommons.org/ns#"
   xmlns:rdf="http://www.w3.org/1999/02/22-rdf-syntax-ns#"
   xmlns:svg="http://www.w3.org/2000/svg"
   xmlns="http://www.w3.org/2000/svg"
   xmlns:sodipodi="http://sodipodi.sourceforge.net/DTD/sodipodi-0.dtd"
   xmlns:inkscape="http://www.inkscape.org/namespaces/inkscape"
   width="664.61267"
   height="614.39453"
   id="svg2"
   version="1.1"
   inkscape:version="0.48.1 "
   sodipodi:docname="planos anatomicos [final EN].svg"
   style="display:inline">
  <defs
     id="defs4" />
  <sodipodi:namedview
     id="base"
     pagecolor="#ffffff"
     bordercolor="#666666"
     borderopacity="1.0"
     inkscape:pageopacity="0.0"
     inkscape:pageshadow="2"
     inkscape:zoom="1.2972121"
     inkscape:cx="332.30634"
     inkscape:cy="307.19727"
     inkscape:document-units="px"
     inkscape:current-layer="layer1"
     showgrid="false"
     fit-margin-top="10"
     fit-margin-left="10"
     fit-margin-right="10"
     fit-margin-bottom="10"
     inkscape:snap-bbox="true"
     inkscape:bbox-paths="false"
     inkscape:bbox-nodes="true"
     inkscape:snap-bbox-edge-midpoints="false"
     inkscape:snap-bbox-midpoints="false"
     inkscape:object-paths="true"
     inkscape:snap-intersection-paths="true"
     inkscape:object-nodes="true"
     inkscape:snap-smooth-nodes="false"
     inkscape:snap-midpoints="false"
     inkscape:snap-global="false"
     inkscape:window-width="1680"
     inkscape:window-height="998"
     inkscape:window-x="-8"
     inkscape:window-y="-8"
     inkscape:window-maximized="1"
     showborder="false" />
  <metadata
     id="metadata7">
    <rdf:RDF>
      <cc:Work
         rdf:about="">
        <dc:format>image/svg+xml</dc:format>
        <dc:type
           rdf:resource="http://purl.org/dc/dcmitype/StillImage" />
        <dc:title></dc:title>
        <cc:license
           rdf:resource="http://creativecommons.org/licenses/by-sa/3.0/" />
      </cc:Work>
      <cc:License
         rdf:about="http://creativecommons.org/licenses/by-sa/3.0/">
        <cc:permits
           rdf:resource="http://creativecommons.org/ns#Reproduction" />
        <cc:permits
           rdf:resource="http://creativecommons.org/ns#Distribution" />
        <cc:requires
           rdf:resource="http://creativecommons.org/ns#Notice" />
        <cc:requires
           rdf:resource="http://creativecommons.org/ns#Attribution" />
        <cc:permits
           rdf:resource="http://creativecommons.org/ns#DerivativeWorks" />
        <cc:requires
           rdf:resource="http://creativecommons.org/ns#ShareAlike" />
      </cc:License>
    </rdf:RDF>
  </metadata>
  <g
     inkscape:groupmode="layer"
     id="layer6"
     inkscape:label="ejes"
     style="display:inline"
     transform="translate(64.685404,54.15561)">
    <path
       style="color:#000000;fill:none;stroke:#000000;stroke-width:2;stroke-linecap:butt;stroke-linejoin:round;stroke-miterlimit:4;stroke-opacity:1;stroke-dasharray:6, 6;stroke-dashoffset:0;marker:none;visibility:visible;display:inline;overflow:visible;enable-background:accumulate"
       d="m 238.61924,25.231573 1.4917,239.314607"
       id="path3799"
       inkscape:connector-curvature="0"
       sodipodi:nodetypes="cc" />
    <path
       style="color:#000000;fill:none;stroke:#000000;stroke-width:2;stroke-linecap:butt;stroke-linejoin:round;stroke-miterlimit:4;stroke-opacity:1;stroke-dasharray:6, 6;stroke-dashoffset:0;marker:none;visibility:visible;display:inline;overflow:visible;enable-background:accumulate"
       d="M 102.31671,301.46803 240.11094,264.54618"
       id="path3803"
       inkscape:connector-curvature="0" />
    <path
       style="color:#000000;fill:none;stroke:#999999;stroke-width:2;stroke-linecap:butt;stroke-linejoin:round;stroke-miterlimit:4;stroke-opacity:1;stroke-dasharray:6, 6;stroke-dashoffset:0;marker:none;visibility:visible;display:inline;overflow:visible;enable-background:accumulate"
       d="m 137.53208,237.48046 102.57886,27.06572"
       id="path3805"
       inkscape:connector-curvature="0" />
    <path
       style="color:#000000;fill:none;stroke:#000000;stroke-width:2;stroke-linecap:butt;stroke-linejoin:round;stroke-miterlimit:4;stroke-opacity:1;stroke-dasharray:6, 6;stroke-dashoffset:0;marker:none;visibility:visible;display:inline;overflow:visible;enable-background:accumulate"
       d="m 238.63241,491.9226 1.47853,-173.56459"
       id="path3807"
       inkscape:connector-curvature="0" />
    <path
       style="color:#000000;fill:none;stroke:#999999;stroke-width:2;stroke-linecap:butt;stroke-linejoin:round;stroke-miterlimit:4;stroke-opacity:1;stroke-dasharray:6, 6;stroke-dashoffset:0;marker:none;visibility:visible;display:inline;overflow:visible;enable-background:accumulate"
       d="m 240.11094,264.54618 0,53.81183"
       id="path3809"
       inkscape:connector-curvature="0" />
    <path
       style="color:#000000;fill:none;stroke:#000000;stroke-width:2;stroke-linecap:butt;stroke-linejoin:round;stroke-miterlimit:4;stroke-opacity:1;stroke-dasharray:6, 6;stroke-dashoffset:0;marker:none;visibility:visible;display:inline;overflow:visible;enable-background:accumulate"
       d="m 375.6522,228.22801 -35.93263,9.62812"
       id="path3811"
       inkscape:connector-curvature="0" />
    <path
       style="color:#000000;fill:none;stroke:#999999;stroke-width:2;stroke-linecap:butt;stroke-linejoin:round;stroke-miterlimit:4;stroke-opacity:1;stroke-dasharray:6, 6;stroke-dashoffset:0;marker:none;visibility:visible;display:inline;overflow:visible;enable-background:accumulate"
       d="m 240.11094,264.54618 99.60863,-26.69005"
       id="path3813"
       inkscape:connector-curvature="0" />
  </g>
  <g
     inkscape:groupmode="layer"
     id="layer5"
     inkscape:label="planos (detras de silueta)"
     style="display:inline"
     transform="translate(64.685404,54.15561)">
    <g
       id="g3786"
       style="stroke:#808080;stroke-opacity:1">
      <path
         inkscape:connector-curvature="0"
         id="path3012"
         d="m 238.63241,491.9226 -101.10033,-27.09551 0,-153.9066"
         style="color:#000000;fill:none;stroke:#808080;stroke-width:2;stroke-linecap:butt;stroke-linejoin:round;stroke-miterlimit:4;stroke-opacity:1;stroke-dasharray:none;stroke-dashoffset:0;marker:none;visibility:visible;display:inline;overflow:visible;enable-background:accumulate" />
      <path
         inkscape:connector-curvature="0"
         id="path3016"
         d="m 137.53208,237.48046 0,-185.162665"
         style="color:#000000;fill:none;stroke:#808080;stroke-width:2;stroke-linecap:butt;stroke-linejoin:round;stroke-miterlimit:4;stroke-opacity:1;stroke-dasharray:none;stroke-dashoffset:0;marker:none;visibility:visible;display:inline;overflow:visible;enable-background:accumulate"
         sodipodi:nodetypes="cc" />
    </g>
    <path
       style="color:#000000;fill:none;stroke:#cccccc;stroke-width:2;stroke-linecap:butt;stroke-linejoin:round;stroke-miterlimit:4;stroke-opacity:1;stroke-dasharray:none;stroke-dashoffset:0;marker:none;visibility:visible;display:inline;overflow:visible;enable-background:accumulate"
       d="m 137.53208,237.48046 137.00487,-36.71034 65.18262,17.46562"
       id="path3000"
       inkscape:connector-curvature="0"
       sodipodi:nodetypes="ccc" />
    <path
       style="color:#000000;fill:none;stroke:#000000;stroke-width:2;stroke-linecap:butt;stroke-linejoin:round;stroke-miterlimit:4;stroke-opacity:1;stroke-dasharray:none;stroke-dashoffset:0;marker:none;visibility:visible;display:inline;overflow:visible;enable-background:accumulate"
       d="m 238.63242,491.9226 -137.03297,36.71788 0,-466.694564 274.05275,-73.432216 0,239.71431"
       id="path3002"
       inkscape:connector-curvature="0"
       sodipodi:nodetypes="ccccc" />
    <path
       style="color:#000000;fill:none;stroke:#000000;stroke-width:2;stroke-linecap:butt;stroke-linejoin:round;stroke-miterlimit:4;stroke-opacity:1;stroke-dasharray:none;stroke-dashoffset:0;marker:none;visibility:visible;display:inline;overflow:visible;enable-background:accumulate"
       d="m 375.6522,282.03984 0,173.16843 -35.93263,9.62812"
       id="path3004"
       inkscape:connector-curvature="0" />
    <path
       style="color:#000000;fill:none;stroke:#808080;stroke-width:2;stroke-linecap:butt;stroke-linejoin:round;stroke-miterlimit:4;stroke-opacity:1;stroke-dasharray:none;stroke-dashoffset:0;marker:none;visibility:visible;display:inline;overflow:visible;enable-background:accumulate"
       d="M 238.63241,491.9226 339.71957,464.83639"
       id="path3006"
       inkscape:connector-curvature="0" />
    <path
       style="color:#000000;fill:none;stroke:#808080;stroke-width:2;stroke-linecap:butt;stroke-linejoin:round;stroke-miterlimit:4;stroke-opacity:1;stroke-dasharray:none;stroke-dashoffset:0;marker:none;visibility:visible;display:inline;overflow:visible;enable-background:accumulate"
       d="m 375.6522,228.22801 0,53.81183"
       id="path3008"
       inkscape:connector-curvature="0" />
    <path
       style="color:#000000;fill:none;stroke:#000000;stroke-width:2;stroke-linecap:butt;stroke-linejoin:round;stroke-miterlimit:4;stroke-opacity:1;stroke-dasharray:none;stroke-dashoffset:0;marker:none;visibility:visible;display:inline;overflow:visible;enable-background:accumulate"
       d="m 137.53208,52.317797 0,-54.178209 202.18749,54.1875 0,466.687502 -101.08716,-27.09199"
       id="path3010"
       inkscape:connector-curvature="0"
       sodipodi:nodetypes="ccccc" />
    <path
       style="color:#000000;fill:none;stroke:#cccccc;stroke-width:2;stroke-linecap:butt;stroke-linejoin:round;stroke-miterlimit:4;stroke-opacity:1;stroke-dasharray:none;stroke-dashoffset:0;marker:none;visibility:visible;display:inline;overflow:visible;enable-background:accumulate"
       d="m 137.53208,310.90095 0,-73.42049"
       id="path3014"
       inkscape:connector-curvature="0" />
    <g
       id="g3794"
       style="stroke:#808080">
      <path
         inkscape:connector-curvature="0"
         id="path3790"
         d="m 101.59945,247.10858 35.93263,-9.62812"
         style="color:#000000;fill:none;stroke:#808080;stroke-width:2;stroke-linecap:butt;stroke-linejoin:round;stroke-miterlimit:4;stroke-opacity:1;stroke-dasharray:none;stroke-dashoffset:0;marker:none;visibility:visible;display:inline;overflow:visible;enable-background:accumulate" />
      <path
         inkscape:connector-curvature="0"
         id="path3792"
         d="m 339.71957,218.23574 35.93263,9.99227"
         style="color:#000000;fill:none;stroke:#808080;stroke-width:2;stroke-linecap:butt;stroke-linejoin:round;stroke-miterlimit:4;stroke-opacity:1;stroke-dasharray:none;stroke-dashoffset:0;marker:none;visibility:visible;display:inline;overflow:visible;enable-background:accumulate" />
    </g>
  </g>
  <g
     inkscape:groupmode="layer"
     id="layer8"
     inkscape:label="silueta recortada"
     style="display:inline"
     transform="translate(64.685404,54.15561)">
    <path
       style="fill:#ffc9b9;fill-opacity:1;fill-rule:nonzero;stroke:#000000;stroke-width:0.25;display:inline"
       d="m 244.37582,42.441417 c -9.99069,-0.716039 -23.44335,5.013296 -22.96875,16.75 -1.0897,8.697085 -0.37712,18.022363 5.25,25 4.18818,9.408244 0.95793,21.360863 -7.84375,26.843753 -9.47507,8.68736 -25.72616,11.92981 -29.15625,25.90625 -5.44472,21.84567 0.82627,45.55322 -7.6875,66.90624 -4.13964,19.76392 -0.54817,40.42067 -3.15625,60.40625 -4.23829,8.77681 -11.79194,15.58827 -18.18749,22.5 2.01908,3.95306 8.33872,-2.00952 9.74999,3.15625 1.21204,5.22554 -1.18909,12.60518 3.75,16.3125 1.68506,0.90009 3.09636,2.53476 5.4375,1.34375 2.24957,-1.39401 2.82718,3.44043 5.03125,0.40625 0.69179,-3.20907 4.96557,0.89975 5.21875,-3.15625 1.28477,-11.57028 2.17824,-23.7781 1.28125,-35.28125 10.74746,-20.66741 11.93399,-44.22573 14.50553,-66.89308 0.48509,-2.13853 3.59945,-17.23957 3.59945,-17.23957 0,0 0.28054,10.24879 0.67627,12.6639 1.90917,14.54237 1.80686,30.12836 0.8125,45.0625 -1.30427,14.74085 -8.2813,28.57289 -8.28125,43.59375 0.27807,23.11306 -1.23137,46.68099 4.6875,69.1875 -2.66054,14.98724 -9.73905,29.52751 -7.21875,45.0625 1.211,14.5646 4.98691,29.46817 0.84463,43.9256 -1.17135,5.98194 -0.0844,12.09876 3.59287,16.91815 2.06498,5.65884 2.72289,13.47919 9.75,15.25 4.8873,2.6379 11.75681,2.40207 14.78125,-2.71875 2.48961,-1.73001 8.15881,2.04829 8.125,-2.5 -2.14398,-4.47048 -6.71016,-7.39818 -8.12766,-12.42917 -2.80399,-6.38138 -6.14975,-12.7247 -9.99734,-18.32083 -0.37356,-19.38005 11.38793,-36.71769 9.88296,-56.21837 -0.33142,-9.53523 0.89765,-19.1034 3.99204,-28.00038 -0.44365,-5.38979 -1.46659,-11.34151 2.3125,-15.8125 3.52717,-8.90563 3.93863,-19.02988 8.65625,-27.59375 2.55686,14.92042 3.88923,30.4475 1.78125,45.53125 -2.40413,14.52913 -3.00304,29.7898 1,44.0625 2.02644,10.39674 -1.33234,20.88452 -1.84375,31.125 1.99244,5.38917 9.24796,2.03286 13.42332,3.76155 7.2948,0.51766 12.64838,5.49533 18.20169,9.5197 4.86986,2.02811 12.06563,3.78662 16.1875,-0.21875 4.32823,-4.79695 1.94255,-14.22735 -5.34375,-13.90625 -6.94447,-0.75875 -11.49224,-6.54435 -17.9375,-8.59375 -6.29609,-2.86904 -3.7984,-11.05833 -4.40625,-16.59375 -0.0701,-11.99887 3.74389,-23.42833 7.15625,-34.71875 1.10804,-10.43883 -0.3393,-21.06483 1.64166,-31.40611 -0.27655,-10.4899 0.88145,-21.31765 6.17084,-30.43764 7.41823,-21.19517 4.79089,-44.67199 -1.59375,-65.78125 -3.61415,-15.605 -3.94636,-32.00901 -3.03125,-48 0.31458,-7.5581 4.4589,-6.7126 4.36665,0.2776 0.92742,12.21832 7.02762,23.27832 12.0396,34.2224 -0.13373,9.32535 1.05408,19.29415 4.625,27.59375 2.54001,0.0924 6.93969,2.22695 8.5,-0.53125 -0.20097,-2.28935 2.2102,-3.52898 4.21875,-3.09375 1.9473,-8.77032 -2.2068,-17.70211 -0.0312,-26.46875 2.25913,2.31147 7.88479,0.91543 7.78125,-2.28125 -6.08836,-0.26874 -10.95529,-4.32201 -15.25,-8.09375 -2.64123,-6.76638 -0.7928,-14.63372 -1.8125,-21.78125 0.12741,-11.90288 -2.89928,-23.31643 -5.125,-34.875 -2.1273,-12.87813 -0.2547,-26.33319 -3.4375,-38.96874 -3.62651,-8.07162 -11.0392,-17.15953 -21,-15.375 -6.35562,1.89825 -5.67503,-0.83658 -2.84375,-5.3125 6.1063,-14.629861 3.45543,-31.341038 0.28125,-46.281253 -3.40419,-9.284615 -13.22651,-15.210988 -23.03131,-14.40625 z"
       id="path3933-7-7"
       inkscape:connector-curvature="0"
       sodipodi:nodetypes="ccccccccccccccccccccccccccccccccccccccccccccccccccccccccccccc" />
    <path
       style="fill:#ffd7cd;fill-opacity:1;fill-rule:nonzero;stroke:#000000;stroke-width:0.25;display:inline"
       d="m 308.90625,244.5625 c -4.32804,1.66013 -11.86602,3.07666 -16.28125,3 0.73712,4.31959 1.84999,8.50878 3.5,12.34375 2.54001,0.0924 6.93969,2.22695 8.5,-0.53125 -0.20097,-2.28935 2.2102,-3.52898 4.21875,-3.09375 0.86354,-3.88923 0.51459,-7.7945 0.0625,-11.71875 z m -27.6875,13.03125 c -2.47918,3.16169 -8.86722,6.62741 -23.28125,11.0625 -21.09581,6.49102 -44.24134,5.79293 -53.53125,2.8125 -1.14805,5.00363 -2.00002,10.04835 -2,15.25 0.27807,23.11306 -1.23137,46.68099 4.6875,69.1875 -2.66054,14.98724 -9.73905,29.52751 -7.21875,45.0625 1.211,14.5646 4.98603,29.48007 0.84375,43.9375 -1.17135,5.98194 -0.0835,12.08686 3.59375,16.90625 2.06498,5.65884 2.72289,13.47919 9.75,15.25 4.8873,2.6379 11.75681,2.40207 14.78125,-2.71875 2.48961,-1.73001 8.15881,2.04829 8.125,-2.5 -2.14398,-4.47048 -6.7075,-7.40651 -8.125,-12.4375 -2.80399,-6.38138 -6.15241,-12.71637 -10,-18.3125 -0.37356,-19.38005 11.37997,-36.71807 9.875,-56.21875 -0.33142,-9.53523 0.90561,-19.10302 4,-28 -0.44365,-5.38979 -1.46659,-11.34151 2.3125,-15.8125 3.52717,-8.90563 3.93863,-19.02988 8.65625,-27.59375 2.55686,14.92042 3.88923,30.4475 1.78125,45.53125 -2.40413,14.52913 -3.00304,29.7898 1,44.0625 2.02644,10.39674 -1.33234,20.88452 -1.84375,31.125 1.99244,5.38917 9.26214,2.02131 13.4375,3.75 7.2948,0.51766 12.63419,5.50688 18.1875,9.53125 4.86986,2.02811 12.06563,3.78662 16.1875,-0.21875 4.32823,-4.79695 1.94255,-14.22735 -5.34375,-13.90625 -6.94447,-0.75875 -11.49224,-6.54435 -17.9375,-8.59375 -6.29609,-2.86904 -3.7984,-11.05833 -4.40625,-16.59375 -0.0701,-11.99887 3.74389,-23.42833 7.15625,-34.71875 1.10804,-10.43883 -0.32471,-21.06497 1.65625,-31.40625 -0.27655,-10.4899 0.86686,-21.31751 6.15625,-30.4375 6.06274,-17.32229 5.42421,-36.16766 1.5,-54 z m -90.625,18.84375 c -2.73557,-0.0197 -6.57427,0.33118 -11.4375,2.3125 -6.88958,2.80686 -10.66263,3.03317 -12.46875,1.625 -2.0461,2.1558 -4.10511,4.25963 -6.0625,6.375 2.01908,3.95306 8.33873,-2.00952 9.75,3.15625 1.21204,5.22554 -1.18909,12.60518 3.75,16.3125 1.68506,0.90009 3.09636,2.53476 5.4375,1.34375 2.24957,-1.39401 2.82718,3.44043 5.03125,0.40625 0.69179,-3.20907 4.96557,0.89975 5.21875,-3.15625 1.02965,-9.27274 1.78696,-18.94294 1.59375,-28.34375 -0.2828,-0.0103 -0.50056,-0.029 -0.8125,-0.0312 z"
       id="path3955"
       inkscape:connector-curvature="0" />
    <path
       style="color:#000000;fill:#ffd8cd;fill-opacity:1;stroke:#000000;stroke-width:0.25;stroke-linecap:butt;stroke-linejoin:round;stroke-miterlimit:4;stroke-opacity:1;stroke-dasharray:none;stroke-dashoffset:0;marker:none;visibility:visible;display:inline;overflow:visible;enable-background:accumulate"
       d="m 238.25,42.75 c -8.59474,1.435601 -17.2257,6.992083 -16.84375,16.4375 -1.0897,8.697085 -0.37712,18.022363 5.25,25 4.18818,9.408244 0.95793,21.36086 -7.84375,26.84375 -9.47507,8.68736 -25.72616,11.92981 -29.15625,25.90625 -5.44472,21.84567 0.82627,45.55323 -7.6875,66.90625 -4.13964,19.76392 -0.54817,40.42067 -3.15625,60.40625 -4.23829,8.77681 -11.79195,15.58827 -18.1875,22.5 0.20604,0.4034 0.46418,0.687 0.75,0.90625 5.95446,-5.25356 15.67914,-15.00851 17.90625,-17.3125 4.91973,-5.08956 3.67593,-14.7524 4.15625,-22.4375 0.48032,-7.6851 1.66091,-35.41676 4.0625,-44.0625 2.4016,-8.64574 4.10186,-26.24774 5.0625,-31.53125 0.96064,-5.28351 1.60652,-33.32992 4.96875,-39.09375 3.36224,-5.76383 16.19801,-15.38777 24.84375,-18.75 8.64574,-3.36223 8.66436,-15.34495 9.625,-19.1875 0.96064,-3.842552 -4.32407,-24.041757 -3.84375,-32.6875 C 228.55211,55.468266 231.56212,47.682009 238.25,42.75 z m -26.5625,125.8125 -1.21875,4.96875 -0.625,5.78125 -0.65625,6.09375 c 0,0 0.29177,10.24114 0.6875,12.65625 1.90917,14.54237 1.80686,30.12836 0.8125,45.0625 -1.30427,14.74085 -8.2813,28.57289 -8.28125,43.59375 0.27807,23.11306 -1.23137,46.68099 4.6875,69.1875 -2.66054,14.98724 -9.73905,29.52751 -7.21875,45.0625 1.211,14.5646 4.98603,29.48007 0.84375,43.9375 -1.17135,5.98194 -0.0835,12.08686 3.59375,16.90625 -4.03389,-11.70799 7.26848,-11.59229 3.90625,-38.25 -3.34054,-26.4857 1.68404,-36.4863 3.125,-55.21875 1.44095,-18.73244 0.72221,-25.948 -0.71875,-34.59375 -1.44096,-8.64574 0.3762,-53.9169 4.21875,-75.53125 3.84255,-21.61436 -0.27433,-70.44349 -3.15625,-89.65625 z m 32.625,114.8125 -0.40625,27.4375 -0.25,2.75 c 0.0156,-0.0286 0.0155,-0.0652 0.0312,-0.0937 2.55686,14.92042 3.88923,30.4475 1.78125,45.53125 -2.40413,14.52913 -3.00304,29.7898 1,44.0625 2.02644,10.39674 -1.33234,20.88452 -1.84375,31.125 1.21365,3.28269 4.39141,3.33128 7.625,3.25 -3.45976,-2.97389 -1.4673,-5.65677 0.375,-16.25 1.92128,-11.04734 0.99191,-23.80799 0.0312,-34.375 -0.96063,-10.56702 1.32753,-47.27341 -0.59375,-72.25 -1.92127,-24.97659 -7.75,-31.1875 -7.75,-31.1875 z"
       id="path3858-6"
       inkscape:connector-curvature="0" />
    <path
       style="color:#000000;fill:#ffd8cd;fill-opacity:1;stroke:#000000;stroke-width:0.25;stroke-linecap:butt;stroke-linejoin:round;stroke-miterlimit:4;stroke-opacity:1;stroke-dasharray:none;stroke-dashoffset:0;marker:none;visibility:visible;display:inline;overflow:visible;enable-background:accumulate"
       d="m 242.46875,42.375 c -0.36998,0.0031 -0.74975,0.04299 -1.125,0.0625 12.59487,4.169233 18.21268,8.257634 19.9375,21.625 1.92128,14.88989 4.33909,29.752391 1.9375,37.4375 -2.4016,7.6851 -3.375,8.65625 -3.375,8.65625 l -10.0625,-2.40625 -4.34375,-0.46875 c 0,0 0.48843,2.38777 0.96875,5.75 0.48032,3.36224 4.78591,5.76396 7.1875,12.96875 2.4016,7.20478 6.25345,34.58924 4.8125,45.15625 -1.44096,10.56702 -5.28936,52.34854 -6.25,67.71875 -0.96064,15.37021 0.48258,34.11117 -5.28125,39.875 -1.44096,4.32287 -2.875,4.8125 -2.875,4.8125 l -0.46875,29.78125 -0.0625,0.53125 c 0.0722,-0.13563 0.14446,-0.27139 0.21875,-0.40625 2.55686,14.92042 3.88923,30.4475 1.78125,45.53125 -2.40413,14.52913 -3.00304,29.7898 1,44.0625 2.02644,10.39674 -1.33234,20.88452 -1.84375,31.125 1.99244,5.38917 9.26214,2.02131 13.4375,3.75 7.2948,0.51766 12.63419,5.50688 18.1875,9.53125 4.86986,2.02811 12.06563,3.78662 16.1875,-0.21875 4.32823,-4.79695 1.94255,-14.22735 -5.34375,-13.90625 -6.94447,-0.75875 -11.49224,-6.54435 -17.9375,-8.59375 -6.29609,-2.86904 -3.7984,-11.05833 -4.40625,-16.59375 -0.0701,-11.99887 3.74389,-23.42833 7.15625,-34.71875 1.10804,-10.43883 -0.32471,-21.06497 1.65625,-31.40625 -0.27655,-10.4899 0.86686,-21.31751 6.15625,-30.4375 7.41823,-21.19517 4.79089,-44.67199 -1.59375,-65.78125 -3.61415,-15.605 -3.94636,-32.00901 -3.03125,-48 0.31458,-7.5581 4.46725,-6.70895 4.375,0.28125 0.92742,12.21832 7.01927,23.27467 12.03125,34.21875 -0.13373,9.32535 1.05408,19.29415 4.625,27.59375 2.54001,0.0924 6.93969,2.22695 8.5,-0.53125 -0.20097,-2.28935 2.2102,-3.52898 4.21875,-3.09375 1.9473,-8.77032 -2.20685,-17.70211 -0.0312,-26.46875 2.25913,2.31147 7.88479,0.91543 7.78125,-2.28125 -6.08836,-0.26874 -10.95529,-4.32201 -15.25,-8.09375 -2.64123,-6.76638 -0.7928,-14.63372 -1.8125,-21.78125 0.12741,-11.90288 -2.89928,-23.31643 -5.125,-34.875 -2.1273,-12.87813 -0.2547,-26.3332 -3.4375,-38.96875 -3.62651,-8.07162 -11.0392,-17.15953 -21,-15.375 -6.35562,1.89825 -5.67503,-0.83658 -2.84375,-5.3125 6.1063,-14.629861 3.45543,-31.341035 0.28125,-46.28125 -3.40424,-9.284615 -13.2265,-15.210988 -23.0313,-14.40625 -0.62442,-0.04475 -1.25903,-0.068 -1.90625,-0.0625 z"
       id="path3864-7"
       inkscape:connector-curvature="0" />
    <path
       style="color:#000000;fill:#fff0eb;fill-opacity:1;stroke:#000000;stroke-width:0.25;stroke-linecap:butt;stroke-linejoin:round;stroke-miterlimit:4;stroke-opacity:1;stroke-dasharray:none;stroke-dashoffset:0;marker:none;visibility:visible;display:inline;overflow:visible;enable-background:accumulate"
       d="m 308.90625,244.5625 c -4.32804,1.66013 -11.86602,3.07666 -16.28125,3 0.73712,4.31959 1.84999,8.50878 3.5,12.34375 2.54001,0.0924 6.93969,2.22695 8.5,-0.53125 -0.20097,-2.28935 2.2102,-3.52898 4.21875,-3.09375 0.86231,-3.88368 0.51363,-7.8001 0.0625,-11.71875 z m -27.6875,13.03125 c -2.47918,3.16169 -8.86722,6.62741 -23.28125,11.0625 -2.5068,0.77132 -5.0556,1.45489 -7.59375,2.03125 -0.69288,3.52405 -1.77365,6.3674 -3.46875,8.0625 -1.44096,4.32287 -2.875,4.8125 -2.875,4.8125 l -0.46875,29.78125 -0.0625,0.53125 c 0.0722,-0.13563 0.14446,-0.27139 0.21875,-0.40625 2.55686,14.92042 3.88923,30.4475 1.78125,45.53125 -2.40413,14.52913 -3.00304,29.7898 1,44.0625 2.02644,10.39674 -1.33234,20.88452 -1.84375,31.125 1.99244,5.38917 9.26214,2.02131 13.4375,3.75 7.2948,0.51766 12.63419,5.50688 18.1875,9.53125 4.86986,2.02811 12.06563,3.78662 16.1875,-0.21875 4.32823,-4.79695 1.94255,-14.22735 -5.34375,-13.90625 -6.94447,-0.75875 -11.49224,-6.54435 -17.9375,-8.59375 -6.29609,-2.86904 -3.7984,-11.05833 -4.40625,-16.59375 -0.0701,-11.99887 3.74389,-23.42833 7.15625,-34.71875 1.10804,-10.43883 -0.32471,-21.06497 1.65625,-31.40625 -0.27655,-10.4899 0.86686,-21.31751 6.15625,-30.4375 6.06274,-17.32229 5.42421,-36.16766 1.5,-54 z"
       id="path3960"
       inkscape:connector-curvature="0" />
    <path
       style="color:#000000;fill:#ffe8e1;stroke:#000000;stroke-width:0.25;stroke-linecap:butt;stroke-linejoin:round;stroke-miterlimit:4;stroke-opacity:1;stroke-dasharray:none;stroke-dashoffset:0;marker:none;visibility:visible;display:inline;overflow:visible;enable-background:accumulate"
       d="m 204.40625,271.46875 c -1.14643,4.99916 -2.00002,10.0531 -2,15.25 0.27807,23.11306 -1.23137,46.68099 4.6875,69.1875 -2.66054,14.98724 -9.73905,29.52751 -7.21875,45.0625 1.211,14.5646 4.98603,29.48007 0.84375,43.9375 -1.17135,5.98194 -0.0835,12.08686 3.59375,16.90625 -4.03389,-11.70799 7.26848,-11.59229 3.90625,-38.25 -3.34054,-26.4857 1.68404,-36.4863 3.125,-55.21875 1.44095,-18.73244 0.72221,-25.948 -0.71875,-34.59375 -1.16048,-6.96289 -0.20326,-37.67156 2.21875,-60.65625 -3.40402,-0.38484 -6.30347,-0.94035 -8.4375,-1.625 z"
       id="path3152"
       inkscape:connector-curvature="0" />
    <path
       style="color:#000000;fill:#ffe8e1;stroke:#000000;stroke-width:0.25;stroke-linecap:butt;stroke-linejoin:round;stroke-miterlimit:4;stroke-opacity:1;stroke-dasharray:none;stroke-dashoffset:0;marker:none;visibility:visible;display:inline;overflow:visible;enable-background:accumulate"
       d="m 166.6875,280.375 c -2.0461,2.1558 -4.10511,4.25963 -6.0625,6.375 0.20604,0.4034 0.46418,0.687 0.75,0.90625 2.05568,-1.81371 4.54049,-4.16759 7.03125,-6.5625 -0.69435,-0.13452 -1.27674,-0.37413 -1.71875,-0.71875 z"
       id="path3150"
       inkscape:connector-curvature="0" />
    <path
       style="color:#000000;fill:#fff7f5;fill-opacity:1;stroke:#000000;stroke-width:0.25;stroke-linecap:butt;stroke-linejoin:round;stroke-miterlimit:4;stroke-opacity:1;stroke-dasharray:none;stroke-dashoffset:0;marker:none;visibility:visible;display:inline;overflow:visible;enable-background:accumulate"
       d="m 244.3125,283.375 -0.40625,27.4375 -0.25,2.75 c 0.0156,-0.0286 0.0155,-0.0652 0.0312,-0.0937 2.55686,14.92042 3.88923,30.4475 1.78125,45.53125 -2.40413,14.52913 -3.00304,29.7898 1,44.0625 2.02644,10.39674 -1.33234,20.88452 -1.84375,31.125 1.21365,3.28269 4.39141,3.33128 7.625,3.25 -3.45976,-2.97389 -1.4673,-5.65677 0.375,-16.25 1.92128,-11.04734 0.99191,-23.80799 0.0312,-34.375 -0.96063,-10.56702 1.32753,-47.27341 -0.59375,-72.25 -1.92127,-24.97659 -7.75,-31.1875 -7.75,-31.1875 z"
       id="path3966"
       inkscape:connector-curvature="0" />
    <path
       id="path3156-4-7"
       style="color:#000000;fill:none;stroke:#000000;stroke-width:1;stroke-linecap:butt;stroke-linejoin:round;stroke-miterlimit:4;stroke-opacity:1;stroke-dasharray:none;stroke-dashoffset:0;marker:none;visibility:visible;display:inline;overflow:visible;enable-background:accumulate"
       d="m 223.43385,138.49678 c 0.24962,1.97627 0.14264,3.10013 -1.41422,4.41942 m -4.06586,-21.03643 c 4.43331,1.11029 6.09005,3.69631 5.83363,8.83884 m 51.15832,33.32808 c 0,0 0.89374,0.31851 2.45082,-0.30636 5.62828,-2.25864 5.71888,-7.48477 5.71888,-7.48477 m 23.03095,96.27972 c 0,0 0.69824,3.28709 1.15533,4.04365 1.12923,1.46444 1.61046,0.57117 1.98572,-0.18052 0.93176,-1.88899 0.32047,-6.88837 0.14441,-11.12003 -0.17606,-4.23166 -1.66147,-11.6692 -1.37195,-14.22497 0.0266,-2.74414 0.85314,-0.34356 2.52728,0.14442 0.93933,0.23676 2.23319,0.29395 3.32157,-0.0722 1.08838,-0.36615 2.39057,-1.30029 2.88831,-2.09403 0.49774,-0.79374 1.00569,-1.25185 0.36104,-2.02182 -0.64465,-0.76997 -2.59094,0.33624 -3.97143,0 -1.38049,-0.33624 -2.56083,-1.16802 -4.04365,-2.09403 -1.48282,-0.92601 -2.78536,-2.89935 -4.76573,-3.53819 -1.98037,-0.63884 -2.61191,-1.78552 -3.75481,-4.4769 -1.1429,-2.69138 -0.39596,-26.88815 -1.44416,-33.14345 -0.82068,-4.89759 -1.3239,-7.80747 -2.52727,-10.83119 -1.20338,-3.02372 -1.6535,-6.9675 -2.02183,-11.26445 -0.36833,-4.29695 -0.97068,-8.60462 -1.37195,-14.5138 -0.40127,-5.90917 0.0387,-16.61117 -0.8665,-20.9403 -0.90519,-4.32912 -0.88613,-3.19676 -2.02182,-5.19897 -1.13569,-2.00221 -3.38053,-4.60241 -5.05456,-6.49872 -1.67403,-1.8963 -2.70553,-3.70545 -4.91014,-4.91014 -2.20461,-1.20469 -5.22897,-1.59909 -7.94287,-1.73299 -2.7139,-0.1339 -8.11834,0.94777 -8.11834,0.94777 m 36.8571,151.66374 c 1.8489,1.40199 3.4718,0.54203 3.89923,-1.22754 0.35047,-1.57043 1.04267,-4.28444 1.04702,-6.71534 0.004,-2.4309 -0.79429,-6.60703 -0.79429,-6.60703 m -7.51452,14.22425 0,0 c 2.07891,1.7529 2.5767,1.58979 3.36256,0.32566 1.35452,-2.2117 0,-13.5751 0,-13.5751 m -20.5183,-106.22799 c 0,0 1.41064,0.0324 2.04235,0.40847 0.63171,0.37601 0.56952,27.37624 -0.40847,31.0437 -0.96445,4.30492 -2.86708,8.74282 -4.28893,13.88797 -1.10962,4.08362 -2.47747,8.38353 -3.06353,13.68375 -0.58606,5.30022 -0.27847,12.11161 0,17.97267 0.27847,5.86106 1.03524,12.22082 1.63388,17.15574 0.59864,4.93492 0.90505,8.49803 1.83812,12.45833 0.93307,3.9603 2.69539,7.10578 3.67623,11.23292 0.98084,4.12714 1.60709,7.34209 2.04234,13.47951 0.43525,6.13742 0.35561,17.31851 -0.20423,23.28278 -0.55984,5.96427 -1.04746,8.41741 -2.24658,12.45833 -1.19912,4.04092 -3.66891,8.22253 -4.90164,11.6414 -1.23273,3.41887 -2.02313,4.50824 -2.65506,8.7821 -0.63193,4.27386 0.67341,13.17833 0,16.74727 -0.67341,3.56894 -1.83811,4.6974 -1.83811,4.6974 0.12739,2.92242 0.95972,17.41181 0.20423,22.87431 -0.75549,5.4625 -1.83737,6.26341 -2.85929,9.80328 -1.02192,3.53987 -2.60002,8.21859 -3.26776,11.43716 -0.66774,3.21857 -0.72851,3.67534 -1.02117,7.76093 -0.29264,4.08559 -0.67317,13.24366 -0.20424,16.74726 0.46893,3.5036 -0.0757,2.72117 1.22541,4.28894 1.30113,1.56777 4.06592,1.86468 6.94399,3.47199 2.87807,1.60731 7.0919,5.09002 10.21175,6.33128 3.11985,1.24126 5.8876,0.16211 7.96516,1.63388 2.07756,1.47177 3.35438,3.79394 3.67623,6.12705 0.32185,2.33311 -0.9396,5.19147 -1.83811,6.73976 -0.89851,1.54829 -1.1532,1.97356 -2.65506,2.65505 -1.50186,0.68149 -3.648,0.58793 -6.12705,0.40847 -2.47905,-0.17946 -5.49365,-0.40092 -8.57786,-1.83812 -3.08421,-1.4372 -5.88683,-5.44397 -9.19058,-7.14822 -3.30375,-1.70425 -7.00551,-2.59295 -10.21175,-3.06352 -3.20623,-0.47057 -6.78933,0.65238 -8.78211,0 -1.99278,-0.65238 -2.23638,-0.73335 -3.06352,-2.24659 -0.82714,-1.51324 -0.62364,-3.95034 -0.40847,-6.53552 0.21517,-2.58518 1.51927,-4.45134 2.04235,-8.7821 0.52308,-4.33076 0.86138,-12.94791 0.20423,-17.15573 -0.65715,-4.20782 -1.59605,-1.30525 -2.65505,-7.96517 -1.059,-6.65992 -0.53438,-25.29872 0.20423,-32.06488 0.73861,-6.76616 1.41155,-4.55133 1.83812,-8.57787 0.42657,-4.02654 0.11361,-10.82336 0,-15.52186 -0.11361,-4.6985 -0.28276,-7.96332 -0.61271,-12.66257 -0.32995,-4.69925 -1.14753,-8.23148 -1.42964,-15.52185 -0.28211,-7.29037 0.40847,-28.18442 0.40847,-28.18442 m 33.69878,-96.60314 c 0.58019,8.13681 1.35502,15.68833 3.02733,23.30361 1.33126,5.75955 6.28489,14.62314 8.00135,18.56456 1.71646,3.94142 2.05256,2.99612 2.24659,5.10587 0.19403,2.10975 -0.65342,3.07441 -0.47855,5.57204 0.17487,2.49763 0.94447,5.61783 1.70396,8.72441 0.75949,3.10658 1.59264,8.69696 1.94749,11.16071 0.88929,2.23987 2.21465,3.0237 3.36262,1.70609 0.89891,-1.05443 -0.0588,-3.74369 -0.12176,-6.05484 -0.0629,-2.31115 -0.49095,-7.6289 -0.49095,-7.6289 m -51.95108,31.1768 c 0,0 -3.39014,-8.38345 -3.60083,-9.93637 -0.21069,-1.55292 -1.42965,-8.57786 -1.42965,-8.57786 m 32.0649,-17.97268 c 0,0 -3.7382,7.05564 -5.71858,9.80328 -1.98038,2.74764 -3.96462,3.75926 -5.92281,6.73975 -1.9582,2.98049 -3.5497,8.55545 -5.31012,11.23292 -1.76042,2.67747 -3.10941,3.75887 -4.49317,5.10588 -1.63811,2.92342 -3.18752,3.25104 -3.88047,3.67623 m -14.70491,68.82717 c 0,0 2.07798,-2.23842 3.67623,-6.12704 1.59825,-3.88862 2.93592,-12.6334 4.28893,-17.56421 1.35301,-4.93081 3.67623,-12.04986 3.67623,-12.04986 m -22.05737,51.26297 3.47199,1.02118 M 209.19958,185.40251 c 0.22845,3.14961 0.14412,6.6591 1.02117,15.11339 0.87705,8.45429 1.39901,34.27669 0.40847,43.70628 -0.99054,9.42959 -1.57971,7.41686 -2.85929,12.8668 -1.27958,5.44994 -3.57478,9.995 -4.90164,19.81079 -1.32686,9.81579 -1.19456,29.8463 -1.02117,39.00887 0.17339,9.16257 0.54296,10.68653 1.02117,15.93033 0.47821,5.2438 1.07358,11.78791 1.83812,15.52185 0.76454,3.73394 1.84148,4.75443 2.04235,6.94399 0.20087,2.18956 0.16233,1.95689 -0.61271,5.92282 -0.77504,3.96593 -4.01467,12.87821 -5.10587,17.5642 -1.0912,4.68599 -1.56379,6.89346 -1.83811,10.41598 -0.27433,3.52252 0.0128,6.63537 0.20423,10.62022 0.19142,3.98485 0.53919,9.59885 1.02118,13.27527 0.48198,3.67642 1.22984,4.69198 1.63388,8.78211 0.40404,4.09013 0.78652,12.10723 0.20423,15.72609 -0.58229,3.61886 -1.55053,3.15157 -2.04235,5.92281 -0.49182,2.77124 -0.61258,8.05323 -0.20423,10.62022 0.40834,2.56699 0.83608,2.9437 1.63388,4.6974 0.7978,1.7537 2.32396,3.33101 3.26775,5.71858 0.94379,2.38757 1.01061,6.58813 2.04235,8.57787 1.03174,1.98974 1.41586,2.29767 3.06353,3.47199 1.64767,1.17432 4.45938,2.29952 6.94399,2.85929 2.48461,0.55977 5.97615,1.05273 7.76092,0.40847 1.78477,-0.64426 1.8034,-1.59916 2.65506,-2.45082 0.85166,-0.85166 1.43022,-2.43186 2.45082,-2.65505 1.0206,-0.22319 1.48285,0.82758 2.45082,1.02117 0.96797,0.19359 2.31985,0.39264 3.26776,0 0.94791,-0.39264 1.78444,-1.14308 2.04235,-2.04235 0.25791,-0.89927 0.12084,-1.33155 -0.61271,-2.65505 -0.73355,-1.3235 -2.99804,-2.46369 -4.49317,-4.49317 -1.49513,-2.02948 -2.60565,-4.70265 -4.0847,-7.76093 -1.47905,-3.05828 -3.08531,-8.03482 -4.6974,-10.62021 -1.61209,-2.58539 -3.50236,-3.15784 -4.28893,-5.10588 -0.78657,-1.94804 -0.66778,-2.39901 -0.40847,-5.92281 0.25931,-3.5238 2.13924,-10.212 3.26776,-14.90915 1.12852,-4.69715 2.45489,-10.09105 3.47199,-13.27528 1.0171,-3.18423 1.4996,-2.52543 2.24658,-5.92281 0.74698,-3.39738 0.73723,-7.96478 1.02118,-14.50068 0.28395,-6.5359 0.26035,-20.02252 1.13055,-22.18515 0.8702,-2.16263 1.18464,-2.60759 2.14959,-4.35301 0.96495,-1.74542 0.70871,-5.42947 0.60032,-8.79449 -0.10839,-3.36502 -1.83811,-11.43715 -1.83811,-11.43715 M 218.39015,161.71126 c 0,0 4.14101,3.7652 6.53552,5.3101 2.39451,1.5449 5.19395,3.27449 7.76093,3.88047 2.56698,0.60598 4.98671,0.30273 7.14822,0 2.16151,-0.30273 5.71858,-1.63388 5.71858,-1.63388 m -59.84084,135.81624 c 0.31625,2.62797 3.16841,3.07952 3.88046,1.83811 0.71205,-1.24141 1.49442,-5.91513 1.50186,-8.64406 0.007,-2.72893 -0.16312,-8.33073 0.75712,-13.89186 0.92024,-5.56114 0.30481,-5.73742 0.19184,-7.89508 -0.11296,-2.15766 -1.86194,-4.0116 -1.02117,-6.12705 0.84076,-2.11545 3.37937,-7.1412 4.6974,-10.41598 1.31803,-3.27478 2.01099,-4.67919 3.26776,-9.19058 1.25677,-4.51139 2.79442,-12.00611 3.67623,-17.97267 0.88181,-5.96656 1.36965,-12.00939 1.63388,-17.76844 1.48254,-15.15838 3.13531,-18.44576 4.90164,-29.61407 0.57656,-3.60728 0.79352,-9.67309 1.42964,-12.8668 0.63612,-3.19371 1.09097,-3.83412 1.83812,-6.33129 0.74715,-2.49717 3.58466,-8.71811 3.06352,-12.25409 m -35.33265,150.72539 c 0,0 0.4943,2.3635 1.22541,3.67623 0.73112,1.31273 0.92722,1.43354 2.24659,1.02117 1.31937,-0.41237 1.65425,-2.20152 2.04235,-4.28893 0.38809,-2.08741 0.0189,-4.96489 -0.035,-7.96516 -0.054,-3.00027 -0.47675,-10.00752 -0.1692,-10.00752 l 1.63388,0 m -12.04986,18.99385 c 0,0 0.69174,1.54393 1.34505,2.07952 0.65331,0.53559 1.64808,0.42775 2.53542,-0.0372 0.88733,-0.46492 0.74436,-1.54054 1.22541,-3.47199 0.48104,-1.93145 0.53297,-5.73783 0.71995,-8.67485 0.18698,-2.93702 0.24255,-7.38615 0.30122,-8.88936 m -11.23292,0 c 0,0 0.27915,12.6129 1.22541,15.7261 0.94626,3.1132 1.00489,2.85265 1.83811,3.33996 0.83323,0.48731 1.21881,0.49115 2.04235,-0.0722 0.82355,-0.56336 1.42556,-2.79676 1.35744,-5.98687 -0.0681,-3.19012 -0.7419,-13.02985 -0.13203,-13.21121 0.60988,-0.18136 1.63388,0 1.63388,0 M 234.72895,94.722199 c 0,0 1.80575,0.846173 2.45082,2.246581 0.64507,1.40041 -1.28729,3.64418 0.20423,5.92282 1.49152,2.27864 6.16923,3.40362 9.39481,4.49317 3.22558,1.08954 6.84275,1.85468 9.80328,2.04235 2.96053,0.18766 4.35742,1.93211 7.76093,-0.61271 3.40351,-2.54483 5.39496,-12.39775 6.33129,-16.543031 0.93633,-4.145278 0.64839,-2.805482 0.6127,-7.760928 -0.0357,-4.955446 -1.24923,-17.105034 -2.04235,-21.853139 -0.79312,-4.748105 -0.24174,-3.837599 -1.63388,-6.739754 -1.39214,-2.902155 -4.33921,-7.461517 -7.55669,-9.803277 -3.21749,-2.34176 -7.01253,-3.286506 -10.82446,-3.880464 -3.81193,-0.593958 -8.25159,-0.165119 -11.64139,0.40847 -3.3898,0.573588 -5.86738,0.940954 -8.57787,2.655054 -2.71049,1.7141 -5.49002,4.488464 -6.94399,7.556693 -1.45397,3.068229 -1.27923,6.176827 -1.42964,10.007513 -0.15041,3.830686 -0.31712,9.116686 0.81694,12.866802 1.13406,3.750116 4.2388,6.262612 5.3101,9.190572 1.0713,2.92796 1.49575,4.907706 1.42965,7.965163 -0.0661,3.057457 -0.088,6.166926 -2.24659,10.007516 -2.15857,3.84058 -8.21321,8.41602 -11.64139,11.23292 -3.56418,2.92865 -7.62782,4.65016 -12.45833,7.35246 -3.38214,1.97055 -6.69766,4.2744 -10.00751,8.98634 -3.30985,4.71193 -4.21759,13.74506 -4.69741,18.58537 -0.8495,7.75597 -0.28548,27.10281 -0.81694,34.10724 -0.53145,7.00443 -0.34675,4.84694 -1.02117,7.96516 -0.67443,3.11822 -2.30738,6.46587 -3.26776,10.62022 -0.96038,4.15435 -1.67772,8.5057 -2.24658,14.29644 -0.56887,5.79074 -0.72962,12.9321 -0.81694,20.4235 -0.0873,7.4914 1.20005,19.54916 0.40847,24.50819 -0.79159,4.95903 -0.7898,3.2877 -1.83812,5.31011 -1.04832,2.02241 -3.09501,4.45918 -4.6974,6.53552 -1.60239,2.07634 -3.26117,3.83119 -4.90163,5.92281 -1.64047,2.09162 -5.22535,4.78411 -6.53552,5.92282 -1.31017,1.13871 -1.10864,0.46294 -1.22541,1.02117 -0.11677,0.55823 -0.14182,1.85465 0.67252,2.50038 0.81431,0.64573 3.01324,0.52196 4.43335,0.15467 0,0 3.33568,-0.58436 4.6974,-1.22544 1.36173,-0.64108 3.26776,-2.65502 3.26776,-2.65502"
       inkscape:connector-curvature="0"
       sodipodi:nodetypes="cccccscccczcczzzzzzzsszzzzzzzccczcccccczcczzzzzzzzzzzczzzzzzzzzzzzzzzzzzzzzzzzzzzccczzzzcczcczcczzzccczzcccczzzzzzzzzzzzzzzzzzzzzzzzzzzzzzzzzzzzzzzzzcczzzcczzzzzzzzcczzcczzzzscczzzzcczzzzzcczzzzzzzzzzzzzzzzzzzsczczzzzzzzzzzzzszc" />
  </g>
  <g
     inkscape:groupmode="layer"
     id="layer9"
     inkscape:label="planos y ejes (delante de silueta)"
     transform="translate(64.685404,54.15561)"
     style="display:inline">
    <path
       style="color:#000000;fill:none;stroke:#000000;stroke-width:2;stroke-linecap:butt;stroke-linejoin:round;stroke-miterlimit:4;stroke-opacity:1;stroke-dasharray:none;stroke-dashoffset:0;marker:none;visibility:visible;display:inline;overflow:visible;enable-background:accumulate"
       d="M 101.59945,247.10858 0.50569,274.19657 202.747,328.36965 476.74595,254.95185 375.6522,228.22801"
       id="path2998-3"
       inkscape:connector-curvature="0"
       sodipodi:nodetypes="ccccc" />
    <path
       style="color:#000000;fill:none;stroke:#000000;stroke-width:2;stroke-linecap:butt;stroke-linejoin:round;stroke-miterlimit:4;stroke-opacity:1;stroke-dasharray:6, 6;stroke-dashoffset:0;marker:none;visibility:visible;display:inline;overflow:visible;enable-background:accumulate"
       d="M 404.40497,345.82357 315.891,322.10632"
       id="path3128"
       inkscape:connector-curvature="0"
       transform="translate(-64.685404,-54.15561)" />
    <path
       style="color:#000000;fill:none;stroke:#000000;stroke-width:2;stroke-linecap:butt;stroke-linejoin:round;stroke-miterlimit:4;stroke-opacity:1;stroke-dasharray:6, 6;stroke-dashoffset:0;marker:none;visibility:visible;display:inline;overflow:visible;enable-background:accumulate"
       d="m 259.7978,330.75911 17.37224,-4.65487"
       id="path3130"
       inkscape:connector-curvature="0"
       transform="translate(-64.685404,-54.15561)" />
  </g>
  <g
     inkscape:groupmode="layer"
     id="layer1"
     inkscape:label="texto"
     style="display:inline">
    <text
       xml:space="preserve"
       style="font-size:20px;font-style:normal;font-variant:normal;font-weight:normal;font-stretch:normal;text-align:start;line-height:125%;letter-spacing:0px;word-spacing:0px;text-anchor:start;fill:#000000;fill-opacity:1;stroke:none;display:inline;font-family:DejaVu Sans;-inkscape-font-specification:DejaVu Sans"
       x="593.73865"
       y="300.31247"
       id="text3966-4"
       sodipodi:linespacing="125%"><tspan
         sodipodi:role="line"
         x="593.73865"
         y="300.31247"
         style="font-size:14px;text-align:center;text-anchor:middle"
         id="tspan3209">Transverse Plane</tspan></text>
    <text
       xml:space="preserve"
       style="font-size:20px;font-style:normal;font-variant:normal;font-weight:normal;font-stretch:normal;text-align:start;line-height:125%;letter-spacing:0px;word-spacing:0px;text-anchor:start;fill:#000000;fill-opacity:1;stroke:none;display:inline;font-family:DejaVu Sans;-inkscape-font-specification:DejaVu Sans"
       x="309.57196"
       y="477.95392"
       id="text3970-2"
       sodipodi:linespacing="125%"
       transform="matrix(1,0.27631143,0,1,0,0)"><tspan
         sodipodi:role="line"
         id="tspan3972"
         x="309.57196"
         y="477.95392"
         style="font-size:14px">Sagittal Plane</tspan></text>
    <text
       xml:space="preserve"
       style="font-size:20px;font-style:normal;font-variant:normal;font-weight:normal;font-stretch:normal;text-align:start;line-height:125%;letter-spacing:0px;word-spacing:0px;text-anchor:start;fill:#000000;fill-opacity:1;stroke:none;display:inline;font-family:DejaVu Sans;-inkscape-font-specification:DejaVu Sans"
       x="166.28485"
       y="645.55304"
       id="text3974-0"
       sodipodi:linespacing="125%"
       transform="matrix(1,-0.2811857,0,1,0,0)"><tspan
         sodipodi:role="line"
         x="166.28485"
         y="645.55304"
         style="font-size:14px"
         id="tspan3203">Coronal Plane</tspan></text>
    <text
       xml:space="preserve"
       style="font-size:14px;font-style:normal;font-variant:normal;font-weight:normal;font-stretch:normal;text-align:start;line-height:125%;letter-spacing:0px;word-spacing:0px;text-anchor:start;fill:#000000;fill-opacity:1;stroke:none;display:inline;font-family:DejaVu Sans;-inkscape-font-specification:DejaVu Sans"
       x="306.91422"
       y="29.93178"
       id="text3980-8"
       sodipodi:linespacing="125%"><tspan
         sodipodi:role="line"
         id="tspan3982"
         x="306.91422"
         y="29.93178">Craniocaudal Axis</tspan></text>
    <text
       xml:space="preserve"
       style="font-size:14px;font-style:normal;font-variant:normal;font-weight:normal;font-stretch:normal;text-align:start;line-height:125%;letter-spacing:0px;word-spacing:0px;text-anchor:start;fill:#000000;fill-opacity:1;stroke:none;display:inline;font-family:DejaVu Sans;-inkscape-font-specification:DejaVu Sans"
       x="20.483618"
       y="395.52814"
       id="text3984-7"
       sodipodi:linespacing="125%"
       transform="matrix(1,-0.26504567,0,1,0,0)"><tspan
         sodipodi:role="line"
         x="20.483618"
         y="395.52814"
         id="tspan3201">Left-right</tspan></text>
    <text
       xml:space="preserve"
       style="font-size:14px;font-style:normal;font-variant:normal;font-weight:normal;font-stretch:normal;text-align:start;line-height:125%;letter-spacing:0px;word-spacing:0px;text-anchor:start;fill:#000000;fill-opacity:1;stroke:none;display:inline;font-family:DejaVu Sans;-inkscape-font-specification:DejaVu Sans"
       x="461.35443"
       y="267.0907"
       id="text3988-8"
       sodipodi:linespacing="125%"
       transform="matrix(1,0.27088865,0,1,0,0)"><tspan
         sodipodi:role="line"
         x="461.35443"
         y="267.0907"
         id="tspan3195"
         style="font-style:normal;-inkscape-font-specification:DejaVu Sans">(Dorsoventral)</tspan></text>
    <path
       style="color:#000000;fill:none;stroke:#000000;stroke-width:2;stroke-linecap:butt;stroke-linejoin:round;stroke-miterlimit:4;stroke-opacity:1;stroke-dasharray:6, 6;stroke-dashoffset:0;marker:none;visibility:visible;display:inline;overflow:visible;enable-background:accumulate"
       d="m 303.30464,79.387184 0,-68.387183"
       id="path4002"
       inkscape:connector-curvature="0"
       sodipodi:nodetypes="cc" />
    <path
       style="color:#000000;fill:none;stroke:#000000;stroke-width:2;stroke-linecap:butt;stroke-linejoin:round;stroke-miterlimit:4;stroke-opacity:1;stroke-dasharray:6, 6;stroke-dashoffset:0;marker:none;visibility:visible;display:inline;overflow:visible;enable-background:accumulate"
       d="M 11,397.42428 166.28485,355.81583"
       id="path4004"
       inkscape:connector-curvature="0" />
    <path
       style="color:#000000;fill:none;stroke:#000000;stroke-width:2;stroke-linecap:butt;stroke-linejoin:round;stroke-miterlimit:4;stroke-opacity:1;stroke-dasharray:6, 6;stroke-dashoffset:0;marker:none;visibility:visible;display:inline;overflow:visible;enable-background:accumulate"
       d="M 584.1511,393.9864 404.40497,345.82357"
       id="path4006"
       inkscape:connector-curvature="0" />
    <text
       xml:space="preserve"
       style="font-size:14px;font-style:normal;font-variant:normal;font-weight:normal;font-stretch:normal;text-align:start;line-height:125%;letter-spacing:0px;word-spacing:0px;text-anchor:start;fill:#000000;fill-opacity:1;stroke:none;font-family:DejaVu Sans;-inkscape-font-specification:DejaVu Sans"
       x="571.30029"
       y="317.72089"
       id="text3041"
       sodipodi:linespacing="125%"><tspan
         sodipodi:role="line"
         id="tspan3043"
         x="571.30029"
         y="317.72089"
         style="font-style:normal;-inkscape-font-specification:DejaVu Sans">(Axial)</tspan></text>
    <text
       transform="matrix(1,0.27088865,0,1,0,0)"
       sodipodi:linespacing="125%"
       id="text3047"
       y="249.09068"
       x="461.35443"
       style="font-size:14px;font-style:normal;font-variant:normal;font-weight:normal;font-stretch:normal;text-align:start;line-height:125%;letter-spacing:0px;word-spacing:0px;text-anchor:start;fill:#000000;fill-opacity:1;stroke:none;display:inline;font-family:DejaVu Sans;-inkscape-font-specification:DejaVu Sans"
       xml:space="preserve"><tspan
         id="tspan3053"
         y="249.09068"
         x="461.35443"
         sodipodi:role="line">Axis</tspan></text>
    <text
       xml:space="preserve"
       style="font-size:14px;font-style:normal;font-variant:normal;font-weight:normal;font-stretch:normal;text-align:start;line-height:125%;letter-spacing:0px;word-spacing:0px;text-anchor:start;fill:#000000;fill-opacity:1;stroke:none;display:inline;font-family:DejaVu Sans;-inkscape-font-specification:DejaVu Sans"
       x="461.35443"
       y="231.09068"
       id="text3057"
       sodipodi:linespacing="125%"
       transform="matrix(1,0.27088865,0,1,0,0)"><tspan
         sodipodi:role="line"
         x="461.35443"
         y="231.09068"
         id="tspan3063">Anteroposterior</tspan></text>
    <text
       transform="matrix(1,-0.2811857,0,1,0,0)"
       sodipodi:linespacing="125%"
       id="text3080"
       y="663.55304"
       x="166.28485"
       style="font-size:20px;font-style:normal;font-variant:normal;font-weight:normal;font-stretch:normal;text-align:start;line-height:125%;letter-spacing:0px;word-spacing:0px;text-anchor:start;fill:#000000;fill-opacity:1;stroke:none;display:inline;font-family:DejaVu Sans;-inkscape-font-specification:DejaVu Sans"
       xml:space="preserve"><tspan
         id="tspan3084"
         style="font-size:14px;font-style:normal;-inkscape-font-specification:DejaVu Sans"
         y="663.55304"
         x="166.28485"
         sodipodi:role="line">(Frontal)</tspan></text>
    <text
       transform="matrix(1,-0.26504567,0,1,0,0)"
       sodipodi:linespacing="125%"
       id="text3092"
       y="413.52814"
       x="20.483618"
       style="font-size:14px;font-style:normal;font-variant:normal;font-weight:normal;font-stretch:normal;text-align:start;line-height:125%;letter-spacing:0px;word-spacing:0px;text-anchor:start;fill:#000000;fill-opacity:1;stroke:none;display:inline;font-family:DejaVu Sans;-inkscape-font-specification:DejaVu Sans"
       xml:space="preserve"><tspan
         id="tspan3096"
         y="413.52814"
         x="20.483618"
         sodipodi:role="line">Axis</tspan></text>
  </g>
</svg>
